# Cube model with texture coordinates
g cube
v -1.000000 1.000000 -1.000000
v -1.000000 1.000000 1.000000
v 1.000000 1.000000 1.000000
v 1.000000 1.000000 -1.000000
v 1.000000 -1.000000 1.000000
v -1.000000 -1.000000 1.000000
v -1.000000 -1.000000 -1.000000
v 1.000000 -1.000000 -1.000000
vt 0.000000 0.000000
vt 1.000000 0.000000
vt 1.000000 1.000000
vt 0.000000 1.000000
vn 0.00000 1.00000 0.00000
vn 0.00000 -1.00000 0.00000
vn 1.00000 0.00000 0.00000
vn -1.00000 0.00000 0.00000
vn 0.00000 0.00000 1.00000
vn 0.00000 0.00000 -1.00000
s 1
f 1/4/1 2/1/1 3/2/1
f 4/3/1 1/4/1 3/2/1
f 5/3/2 6/4/2 7/1/2
f 8/2/2 5/3/2 7/1/2
f 7/1/4 6/2/4 1/4/4
f 6/2/4 2/3/4 1/4/4
f 4/3/3 3/4/3 5/1/3
f 8/2/3 4/3/3 5/1/3
f 3/3/5 2/4/5 6/1/5
f 5/2/5 3/3/5 6/1/5
f 4/4/6 8/1/6 1/3/6
f 8/1/6 7/2/6 1/3/6
